<?xml version="1.0" encoding="UTF-8" standalone="no"?>
<svg
   viewBox="0 0 522.42 120.83"
   version="1.1"
   id="svg24"
   sodipodi:docname="logo_jpmakers2.svg"
   inkscape:version="1.2.2 (732a01da63, 2022-12-09)"
   xmlns:inkscape="http://www.inkscape.org/namespaces/inkscape"
   xmlns:sodipodi="http://sodipodi.sourceforge.net/DTD/sodipodi-0.dtd"
   xmlns="http://www.w3.org/2000/svg"
   xmlns:svg="http://www.w3.org/2000/svg">
  <defs
     id="defs28" />
  <sodipodi:namedview
     id="namedview26"
     pagecolor="#505050"
     bordercolor="#eeeeee"
     borderopacity="1"
     inkscape:showpageshadow="0"
     inkscape:pageopacity="0"
     inkscape:pagecheckerboard="0"
     inkscape:deskcolor="#505050"
     showgrid="false"
     inkscape:zoom="2.3161442"
     inkscape:cx="261.20999"
     inkscape:cy="60.445287"
     inkscape:window-width="1366"
     inkscape:window-height="705"
     inkscape:window-x="-8"
     inkscape:window-y="-8"
     inkscape:window-maximized="1"
     inkscape:current-layer="svg24" />
  <g
     id="Capa_2"
     data-name="Capa 2"
     style="fill:#000080">
    <g
       id="Opción_Alternativa_1"
       data-name="Opción Alternativa 1"
       style="fill:#000080">
      <path
         d="M202.22,35.52V58.88q0,8.07-4.81,12.52T183.5,75.85q-6.69,0-10.69-2.34a12.13,12.13,0,0,1-5.48-6.45,18.82,18.82,0,0,1-.69-9.27l13.91-2.34q-.78,5.65.21,7.76a3.51,3.51,0,0,0,3.46,2.11,3.2,3.2,0,0,0,3-1.75,12.55,12.55,0,0,0,1-5.72V35.52Z"
         id="path2"
         style="fill:#000080" />
      <path
         d="M228.41,35.52a22.63,22.63,0,0,1,9.09,1.63,12.12,12.12,0,0,1,5.66,4.75,14.38,14.38,0,0,1,1.92,7.65,14.32,14.32,0,0,1-1.92,7.64A12.14,12.14,0,0,1,237.5,62a22.81,22.81,0,0,1-9.09,1.62h-7V75.25h-14V35.52Zm-2.29,18.12a5.9,5.9,0,0,0,3.61-1,3.65,3.65,0,0,0,1.33-3.1,3.62,3.62,0,0,0-1.33-3.1,5.84,5.84,0,0,0-3.61-1h-4.76v8.19Z"
         id="path4"
         style="fill:#000080" />
      <path
         d="M315.94,35.52V75.25H303.72V61.47l.18-13.37h-.18L296,75.25h-11.2L277.23,48.1H277l.18,13.37V75.25H264.89V35.52h19.62l4.58,17.64,1.74,7.4H291l1.74-7.4,4.58-17.64Z"
         id="path6"
         style="fill:#000080" />
      <path
         d="M318.35,75.25l12.88-39.73h16.85L361,75.25H346.7l-5.42-22.81-1.62-6.75h-.18l-1.57,6.75-5.6,22.81Zm10-7.58V58.94h22.7v8.73Z"
         id="path8"
         style="fill:#000080" />
      <path
         d="M377.46,35.52V75.25h-14V35.52Zm25.28,0-19.5,25.34-.6-3.07-8.73,11.92L370.66,60l17.15-24.5Zm-14.2,12.1,15.29,27.63H388.12l-9.88-19.86Z"
         id="path10"
         style="fill:#000080" />
      <path
         d="M406.6,75.25V35.52h33V45.81h-19v4.94h15.3v9.51h-15.3V65h19.69V75.25Z"
         id="path12"
         style="fill:#000080" />
      <path
         d="M465.83,35.52q7.77,0,11.92,3.46a11.36,11.36,0,0,1,4.16,9.18q0,6.57-4.07,9.87T466,61.35l-1.38.72H458V75.25H444.28V35.52Zm-2.4,17.34a5.69,5.69,0,0,0,3.34-.81,3.34,3.34,0,0,0,1.11-2.86,3.32,3.32,0,0,0-1.11-2.83,5.46,5.46,0,0,0-3.34-.85H458v7.35Zm8.3,3,12.4,19.44H468.9l-9.27-17.4Z"
         id="path14"
         style="fill:#000080" />
      <path
         d="M504.12,34.92a34.58,34.58,0,0,1,10.26,1.41,24,24,0,0,1,8,4.25l-5.66,9a27.48,27.48,0,0,0-5.93-3.19,18.22,18.22,0,0,0-6.71-1.21,10.43,10.43,0,0,0-2.5.24,2.71,2.71,0,0,0-1.32.67,1.33,1.33,0,0,0-.39,1q0,.72,1.11,1.08c.74.24,1.67.5,2.8.79l5.48,1.26q6.07,1.38,9.18,4.09a9.51,9.51,0,0,1,3.1,7.53,12.75,12.75,0,0,1-2.35,7.91,13.85,13.85,0,0,1-6.35,4.61,25.69,25.69,0,0,1-9.06,1.5,42.35,42.35,0,0,1-7.59-.69,34.52,34.52,0,0,1-7-2,22.35,22.35,0,0,1-5.6-3.29l5.54-9.21a19.6,19.6,0,0,0,4.21,2.5,30.4,30.4,0,0,0,5.12,1.78,20.45,20.45,0,0,0,4.94.66,8.62,8.62,0,0,0,2.28-.24,2.36,2.36,0,0,0,1.18-.63,1.42,1.42,0,0,0,.33-.94,1.38,1.38,0,0,0-.69-1.26,9.49,9.49,0,0,0-2.5-.84l-6-1.33a36.85,36.85,0,0,1-6.08-1.92,11.44,11.44,0,0,1-4.7-3.53,10,10,0,0,1-1.8-6.29,12,12,0,0,1,2.19-7.16A14.31,14.31,0,0,1,494,36.63,26.78,26.78,0,0,1,504.12,34.92Z"
         id="path16"
         style="fill:#000080" />
      <polygon
         points="0 85.05 0.03 85.05 0.08 97.83 143.4 14.65 145.12 13.66 127.07 3.2 18.31 66.16 18.31 27.33 29.03 21.14 50.84 33.73 69.34 23.05 29.1 0.04 29.08 0.07 29.03 0 0.06 16.73 0.07 16.76 0 16.76 0 85.05"
         id="polygon18"
         style="fill:#000080" />
      <polygon
         points="150.71 35.78 150.68 35.78 150.63 23 7.31 106.17 5.59 107.17 23.64 117.63 132.4 54.66 132.4 93.49 121.68 99.68 99.87 87.09 81.37 97.78 121.61 120.78 121.63 120.75 121.68 120.83 150.66 104.09 150.64 104.07 150.71 104.07 150.71 35.78"
         id="polygon20"
         style="fill:#000080" />
    </g>
  </g>
</svg>
